<?xml version="1.0" encoding="UTF-8" standalone="no"?>
<!-- Created with Inkscape (http://www.inkscape.org/) -->

<svg
   version="1.1"
   id="svg1"
   width="480"
   height="336"
   viewBox="0 0 480 336"
   xmlns="http://www.w3.org/2000/svg"
   xmlns:svg="http://www.w3.org/2000/svg">
  <defs
     id="defs1" />
  <g
     id="g1">
    <path
       id="path1"
       d="m 343,224 h 31.5 m 3099,0 H 3442"
       style="fill:none;stroke:#000000;stroke-width:5;stroke-linecap:butt;stroke-linejoin:miter;stroke-miterlimit:3.8;stroke-dasharray:none;stroke-opacity:1"
       transform="matrix(0.13333333,0,0,-0.13333333,0,336)" />
    <text
       id="text1"
       xml:space="preserve"
       transform="matrix(1.3333333,0,0,1.3333333,21.4584,309.24693)"><tspan
         id="tspan1"
         style="font-variant:normal;font-weight:normal;font-size:7px;font-family:Helvetica;writing-mode:lr-tb;fill:#000000;fill-opacity:1;fill-rule:nonzero;stroke:none"
         x="0"
         y="0">-100</tspan></text>
    <path
       id="path2"
       d="m 343,777 h 31.5 m 3099,0 H 3442"
       style="fill:none;stroke:#000000;stroke-width:5;stroke-linecap:butt;stroke-linejoin:miter;stroke-miterlimit:3.8;stroke-dasharray:none;stroke-opacity:1"
       transform="matrix(0.13333333,0,0,-0.13333333,0,336)" />
    <text
       id="text2"
       xml:space="preserve"
       transform="matrix(1.3333333,0,0,1.3333333,26.647333,235.5136)"><tspan
         id="tspan2"
         style="font-variant:normal;font-weight:normal;font-size:7px;font-family:Helvetica;writing-mode:lr-tb;fill:#000000;fill-opacity:1;fill-rule:nonzero;stroke:none"
         x="0"
         y="0">-50</tspan></text>
    <path
       id="path3"
       d="m 343,1330 h 31.5 m 3099,0 H 3442"
       style="fill:none;stroke:#000000;stroke-width:5;stroke-linecap:butt;stroke-linejoin:miter;stroke-miterlimit:3.8;stroke-dasharray:none;stroke-opacity:1"
       transform="matrix(0.13333333,0,0,-0.13333333,0,336)" />
    <text
       id="text3"
       xml:space="preserve"
       transform="matrix(1.3333333,0,0,1.3333333,32.35,161.78)"><tspan
         id="tspan3"
         style="font-variant:normal;font-weight:normal;font-size:7px;font-family:Helvetica;writing-mode:lr-tb;fill:#000000;fill-opacity:1;fill-rule:nonzero;stroke:none"
         x="0"
         y="0"> 0</tspan></text>
    <path
       id="path4"
       d="m 343,1882.5 h 31.5 m 3099,0 H 3442"
       style="fill:none;stroke:#000000;stroke-width:5;stroke-linecap:butt;stroke-linejoin:miter;stroke-miterlimit:3.8;stroke-dasharray:none;stroke-opacity:1"
       transform="matrix(0.13333333,0,0,-0.13333333,0,336)" />
    <text
       id="text4"
       xml:space="preserve"
       transform="matrix(1.3333333,0,0,1.3333333,27.160933,88.113333)"><tspan
         id="tspan4"
         style="font-variant:normal;font-weight:normal;font-size:7px;font-family:Helvetica;writing-mode:lr-tb;fill:#000000;fill-opacity:1;fill-rule:nonzero;stroke:none"
         x="0"
         y="0"> 50</tspan></text>
    <path
       id="path5"
       d="m 343,2435.5 h 31.5 m 3099,0 H 3442"
       style="fill:none;stroke:#000000;stroke-width:5;stroke-linecap:butt;stroke-linejoin:miter;stroke-miterlimit:3.8;stroke-dasharray:none;stroke-opacity:1"
       transform="matrix(0.13333333,0,0,-0.13333333,0,336)" />
    <text
       id="text5"
       xml:space="preserve"
       transform="matrix(1.3333333,0,0,1.3333333,21.971867,14.38)"><tspan
         id="tspan5"
         style="font-variant:normal;font-weight:normal;font-size:7px;font-family:Helvetica;writing-mode:lr-tb;fill:#000000;fill-opacity:1;fill-rule:nonzero;stroke:none"
         x="0"
         y="0"> 100</tspan></text>
    <path
       id="path6"
       d="m 1908.5,224 v 31.5 m 0,2180 V 2404"
       style="fill:none;stroke:#000000;stroke-width:5;stroke-linecap:butt;stroke-linejoin:miter;stroke-miterlimit:3.8;stroke-dasharray:none;stroke-opacity:1"
       transform="matrix(0.13333333,0,0,-0.13333333,0,336)" />
    <text
       id="text6"
       xml:space="preserve"
       transform="matrix(1.3333333,0,0,1.3333333,192.98533,318.58027)"><tspan
         id="tspan6"
         style="font-variant:normal;font-weight:normal;font-size:7px;font-family:Helvetica;writing-mode:lr-tb;fill:#000000;fill-opacity:1;fill-rule:nonzero;stroke:none"
         x="0"
         y="0">Zone 1           10          Zone 3</tspan></text>
    <path
       id="path7"
       d="M 343,2435.5 V 224 h 3130.5 v 2211.5 z"
       style="fill:none;stroke:#000000;stroke-width:5;stroke-linecap:butt;stroke-linejoin:miter;stroke-miterlimit:3.8;stroke-dasharray:none;stroke-opacity:1"
       transform="matrix(0.13333333,0,0,-0.13333333,0,336)" />
    <text
       id="text7"
       xml:space="preserve"
       transform="matrix(0,-1.3333333,1.3333333,0,10.580213,170.13867)"><tspan
         id="tspan7"
         style="font-variant:normal;font-weight:normal;font-size:7px;font-family:Helvetica;writing-mode:lr-tb;fill:#000000;fill-opacity:1;fill-rule:nonzero;stroke:none"
         x="0"
         y="0">Utility</tspan></text>
    <text
       id="text8"
       xml:space="preserve"
       transform="matrix(1.3333333,0,0,1.3333333,221.72133,332.58021)"><tspan
         id="tspan8"
         style="font-variant:normal;font-weight:normal;font-size:7px;font-family:Helvetica;writing-mode:lr-tb;fill:#000000;fill-opacity:1;fill-rule:nonzero;stroke:none"
         x="0"
         y="0">Machine setting</tspan></text>
    <text
       id="text9"
       xml:space="preserve"
       transform="matrix(1.3333333,0,0,1.3333333,71.757333,23.246667)"><tspan
         id="tspan9"
         style="font-variant:normal;font-weight:normal;font-size:7px;font-family:Helvetica;writing-mode:lr-tb;fill:#000000;fill-opacity:1;fill-rule:nonzero;stroke:none"
         x="0"
         y="0">Money-utility</tspan></text>
    <path
       id="path9"
       d="m 973,2369 h 199.5 M 343,1330 l 31.5,11 31.5,11 32,11.5 31.5,11 31.5,11 31.5,11.5 32,11 31.5,11 31.5,11.5 31.5,11 32,11 31.5,11.5 31.5,11 31.5,11 32,11.5 31.5,11 31.5,11 31.5,11.5 32,11 31.5,11 31.5,11.5 31.5,11 32,11 31.5,11.5 31.5,11 31.5,11 32,11.5 31.5,11 31.5,11 31.5,11.5 32,11 31.5,11 31.5,11.5 31.5,11 31.5,11 32,11.5 31.5,11 31.5,11 31.5,11.5 32,11 31.5,11 31.5,11.5 31.5,11 32,11 31.5,11.5 31.5,11 31.5,11 32,11.5 31.5,11 31.5,11 31.5,11.5 32,11 31.5,11 31.5,11.5 31.5,11 32,11 31.5,11.5 31.5,11 31.5,11 32,11.5 31.5,11 31.5,11 31.5,11.5 32,11 31.5,11 31.5,11.5 31.5,11 31.5,11.5 32,11 31.5,11 31.5,11.5 31.5,11 32,11 31.5,11.5 31.5,11 31.5,11 32,11.5 31.5,11 31.5,11 31.5,11.5 32,11 31.5,11 31.5,11.5 31.5,11 32,11 31.5,11.5 31.5,11 31.5,11 32,11.5 31.5,11 31.5,11 31.5,11.5 32,11 31.5,11 31.5,11.5 31.5,11 32,11 31.5,11.5 31.5,11"
       style="fill:none;stroke:#000000;stroke-width:2.5;stroke-linecap:butt;stroke-linejoin:miter;stroke-miterlimit:3.8;stroke-dasharray:10, 15;stroke-dashoffset:0;stroke-opacity:1"
       transform="matrix(0.13333333,0,0,-0.13333333,0,336)" />
    <text
       id="text10"
       xml:space="preserve"
       transform="matrix(1.3333333,0,0,1.3333333,81.090667,32.58)"><tspan
         id="tspan10"
         style="font-variant:normal;font-weight:normal;font-size:7px;font-family:Helvetica;writing-mode:lr-tb;fill:#000000;fill-opacity:1;fill-rule:nonzero;stroke:none"
         x="0"
         y="0">Pain-utility</tspan></text>
    <path
       id="path10"
       d="m 973,2299 h 199.5 M 343,1318.5 l 31.5,-0.5 31.5,-0.5 32,-1 31.5,-0.5 31.5,-1 31.5,-1 32,-1 31.5,-1 31.5,-1 31.5,-1 32,-1 31.5,-1.5 31.5,-1 31.5,-1.5 32,-1.5 31.5,-1.5 31.5,-2 31.5,-1.5 32,-2 31.5,-2 31.5,-2 31.5,-2 32,-2.5 31.5,-2.5 31.5,-2.5 31.5,-3 32,-3 31.5,-3 31.5,-3.5 31.5,-3.5 32,-3.5 31.5,-4 31.5,-4 31.5,-4.5 31.5,-5 32,-5 31.5,-5 31.5,-5.5 31.5,-6 32,-6.5 31.5,-6.5 31.5,-7 31.5,-7.5 32,-8 31.5,-8 31.5,-9 31.5,-9.5 32,-10 31.5,-10.5 31.5,-11 31.5,-12 32,-12.5 31.5,-13.5 31.5,-14 31.5,-15 32,-15.5 31.5,-17 31.5,-17.5 31.5,-19 32,-20 31.5,-21 31.5,-22 31.5,-24 32,-25 31.5,-26.5 31.5,-28.5 31.5,-29.5 31.5,-31.5 32,-33.5 31.5,-35.5 31.5,-38 31.5,-39.5 32,-42.5 31.5,-44.5 31.5,-47.5 31.5,-50 32,-53.5 31.5,-56 31.5,-60 21.5,-42.5"
       style="fill:none;stroke:#000000;stroke-width:2.5;stroke-linecap:butt;stroke-linejoin:miter;stroke-miterlimit:3.8;stroke-dasharray:5, 7.5;stroke-dashoffset:0;stroke-opacity:1"
       transform="matrix(0.13333333,0,0,-0.13333333,0,336)" />
    <text
       id="text11"
       xml:space="preserve"
       transform="matrix(1.3333333,0,0,1.3333333,85.243733,41.913333)"><tspan
         id="tspan11"
         style="font-variant:normal;font-weight:normal;font-size:7px;font-family:Helvetica;writing-mode:lr-tb;fill:#000000;fill-opacity:1;fill-rule:nonzero;stroke:none"
         x="0"
         y="0">Net-utility</tspan></text>
    <path
       id="path11"
       d="m 973,2229 h 199.5 M 343,1318.5 l 31.5,10.5 31.5,10.5 32,10.5 31.5,10.5 31.5,10.5 31.5,10 32,10.5 31.5,10 31.5,10 31.5,10 32,10 31.5,10 31.5,10 31.5,10 32,9.5 31.5,9.5 31.5,9.5 31.5,9.5 32,9.5 31.5,9 31.5,9 31.5,9 32,9 31.5,8.5 31.5,8.5 31.5,8.5 32,8 31.5,8 31.5,8 31.5,7.5 32,7.5 31.5,7.5 31.5,7 31.5,6.5 31.5,6.5 32,6.5 31.5,5.5 31.5,6 31.5,5 32,5 31.5,4.5 31.5,4 31.5,4 32,3 31.5,3 31.5,2 31.5,2 32,1 31.5,1 h 31.5 l 31.5,-1 32,-1 31.5,-2.5 31.5,-3 31.5,-3.5 32,-4.5 31.5,-5.5 31.5,-7 31.5,-7.5 32,-8.5 31.5,-10 31.5,-11.5 31.5,-12.5 32,-13.5 31.5,-15.5 31.5,-17 31.5,-19 31.5,-20 32,-22.5 31.5,-24.5 31.5,-26.5 31.5,-28.5 32,-31 31.5,-33.5 31.5,-36.5 31.5,-39 32,-42 31.5,-45 31.5,-48.5 31.5,-52 32,-56 31.5,-60 31.5,-64 31.5,-68.5 32,-73 31.5,-78.5 31.5,-83.5 31.5,-89.5 32,-95 31.5,-101.5 30,-103.5"
       style="fill:none;stroke:#000000;stroke-width:15;stroke-linecap:butt;stroke-linejoin:miter;stroke-miterlimit:3.8;stroke-dasharray:none;stroke-opacity:1"
       transform="matrix(0.13333333,0,0,-0.13333333,0,336)" />
    <path
       id="path12"
       d="M 343,2435.5 V 224 h 3130.5 v 2211.5 z"
       style="fill:none;stroke:#000000;stroke-width:5;stroke-linecap:butt;stroke-linejoin:miter;stroke-miterlimit:3.8;stroke-dasharray:none;stroke-opacity:1"
       transform="matrix(0.13333333,0,0,-0.13333333,0,336)" />
  </g>
</svg>
