<?xml version="1.0" encoding="UTF-8" standalone="no"?>
<!-- Created with Inkscape (http://www.inkscape.org/) -->

<svg
   version="1.1"
   id="svg1"
   width="480"
   height="336"
   viewBox="0 0 480 336"
   xmlns="http://www.w3.org/2000/svg"
   xmlns:svg="http://www.w3.org/2000/svg">
  <defs
     id="defs1" />
  <g
     id="g1">
    <path
       id="path1"
       d="m 343,224 h 31.5"
       style="fill:none;stroke:#000000;stroke-width:2.5;stroke-linecap:butt;stroke-linejoin:miter;stroke-miterlimit:3.8;stroke-dasharray:none;stroke-opacity:1"
       transform="matrix(0.13333333,0,0,-0.13333333,0,336)" />
    <text
       id="text1"
       xml:space="preserve"
       transform="matrix(1.3333333,0,0,1.3333333,21.4584,309.24693)"><tspan
         id="tspan1"
         style="font-variant:normal;font-weight:normal;font-size:7px;font-family:Helvetica;writing-mode:lr-tb;fill:#000000;fill-opacity:1;fill-rule:nonzero;stroke:none"
         x="0"
         y="0">-100</tspan></text>
    <path
       id="path2"
       d="m 343,595 h 31.5"
       style="fill:none;stroke:#000000;stroke-width:2.5;stroke-linecap:butt;stroke-linejoin:miter;stroke-miterlimit:3.8;stroke-dasharray:none;stroke-opacity:1"
       transform="matrix(0.13333333,0,0,-0.13333333,0,336)" />
    <text
       id="text2"
       xml:space="preserve"
       transform="matrix(1.3333333,0,0,1.3333333,26.647333,259.78027)"><tspan
         id="tspan2"
         style="font-variant:normal;font-weight:normal;font-size:7px;font-family:Helvetica;writing-mode:lr-tb;fill:#000000;fill-opacity:1;fill-rule:nonzero;stroke:none"
         x="0"
         y="0">-80</tspan></text>
    <path
       id="path3"
       d="m 343,966 h 31.5"
       style="fill:none;stroke:#000000;stroke-width:2.5;stroke-linecap:butt;stroke-linejoin:miter;stroke-miterlimit:3.8;stroke-dasharray:none;stroke-opacity:1"
       transform="matrix(0.13333333,0,0,-0.13333333,0,336)" />
    <text
       id="text3"
       xml:space="preserve"
       transform="matrix(1.3333333,0,0,1.3333333,26.647333,210.3136)"><tspan
         id="tspan3"
         style="font-variant:normal;font-weight:normal;font-size:7px;font-family:Helvetica;writing-mode:lr-tb;fill:#000000;fill-opacity:1;fill-rule:nonzero;stroke:none"
         x="0"
         y="0">-60</tspan></text>
    <path
       id="path4"
       d="m 343,1337 h 31.5"
       style="fill:none;stroke:#000000;stroke-width:2.5;stroke-linecap:butt;stroke-linejoin:miter;stroke-miterlimit:3.8;stroke-dasharray:none;stroke-opacity:1"
       transform="matrix(0.13333333,0,0,-0.13333333,0,336)" />
    <text
       id="text4"
       xml:space="preserve"
       transform="matrix(1.3333333,0,0,1.3333333,26.647333,160.84667)"><tspan
         id="tspan4"
         style="font-variant:normal;font-weight:normal;font-size:7px;font-family:Helvetica;writing-mode:lr-tb;fill:#000000;fill-opacity:1;fill-rule:nonzero;stroke:none"
         x="0"
         y="0">-40</tspan></text>
    <path
       id="path5"
       d="m 343,1707.5 h 31.5"
       style="fill:none;stroke:#000000;stroke-width:2.5;stroke-linecap:butt;stroke-linejoin:miter;stroke-miterlimit:3.8;stroke-dasharray:none;stroke-opacity:1"
       transform="matrix(0.13333333,0,0,-0.13333333,0,336)" />
    <text
       id="text5"
       xml:space="preserve"
       transform="matrix(1.3333333,0,0,1.3333333,26.647333,111.44667)"><tspan
         id="tspan5"
         style="font-variant:normal;font-weight:normal;font-size:7px;font-family:Helvetica;writing-mode:lr-tb;fill:#000000;fill-opacity:1;fill-rule:nonzero;stroke:none"
         x="0"
         y="0">-20</tspan></text>
    <path
       id="path6"
       d="m 343,2078.5 h 31.5"
       style="fill:none;stroke:#000000;stroke-width:2.5;stroke-linecap:butt;stroke-linejoin:miter;stroke-miterlimit:3.8;stroke-dasharray:none;stroke-opacity:1"
       transform="matrix(0.13333333,0,0,-0.13333333,0,336)" />
    <text
       id="text6"
       xml:space="preserve"
       transform="matrix(1.3333333,0,0,1.3333333,32.35,61.98)"><tspan
         id="tspan6"
         style="font-variant:normal;font-weight:normal;font-size:7px;font-family:Helvetica;writing-mode:lr-tb;fill:#000000;fill-opacity:1;fill-rule:nonzero;stroke:none"
         x="0"
         y="0"> 0</tspan></text>
    <path
       id="path7"
       d="m 343,2449.5 h 31.5"
       style="fill:none;stroke:#000000;stroke-width:2.5;stroke-linecap:butt;stroke-linejoin:miter;stroke-miterlimit:3.8;stroke-dasharray:none;stroke-opacity:1"
       transform="matrix(0.13333333,0,0,-0.13333333,0,336)" />
    <text
       id="text7"
       xml:space="preserve"
       transform="matrix(1.3333333,0,0,1.3333333,27.160933,12.513333)"><tspan
         id="tspan7"
         style="font-variant:normal;font-weight:normal;font-size:7px;font-family:Helvetica;writing-mode:lr-tb;fill:#000000;fill-opacity:1;fill-rule:nonzero;stroke:none"
         x="0"
         y="0"> 20</tspan></text>
    <path
       id="path8"
       d="m 343,224 v 31.5"
       style="fill:none;stroke:#000000;stroke-width:2.5;stroke-linecap:butt;stroke-linejoin:miter;stroke-miterlimit:3.8;stroke-dasharray:none;stroke-opacity:1"
       transform="matrix(0.13333333,0,0,-0.13333333,0,336)" />
    <text
       id="text8"
       xml:space="preserve"
       transform="matrix(1.3333333,0,0,1.3333333,41.841733,318.58027)"><tspan
         id="tspan8"
         style="font-variant:normal;font-weight:normal;font-size:7px;font-family:Helvetica;writing-mode:lr-tb;fill:#000000;fill-opacity:1;fill-rule:nonzero;stroke:none"
         x="0"
         y="0"> 0</tspan></text>
    <path
       id="path9"
       d="m 1125.5,224 v 31.5"
       style="fill:none;stroke:#000000;stroke-width:2.5;stroke-linecap:butt;stroke-linejoin:miter;stroke-miterlimit:3.8;stroke-dasharray:none;stroke-opacity:1"
       transform="matrix(0.13333333,0,0,-0.13333333,0,336)" />
    <text
       id="text9"
       xml:space="preserve"
       transform="matrix(1.3333333,0,0,1.3333333,143.58133,318.58027)"><tspan
         id="tspan9"
         style="font-variant:normal;font-weight:normal;font-size:7px;font-family:Helvetica;writing-mode:lr-tb;fill:#000000;fill-opacity:1;fill-rule:nonzero;stroke:none"
         x="0"
         y="0"> 50</tspan></text>
    <path
       id="path10"
       d="m 1908.5,224 v 31.5"
       style="fill:none;stroke:#000000;stroke-width:2.5;stroke-linecap:butt;stroke-linejoin:miter;stroke-miterlimit:3.8;stroke-dasharray:none;stroke-opacity:1"
       transform="matrix(0.13333333,0,0,-0.13333333,0,336)" />
    <text
       id="text10"
       xml:space="preserve"
       transform="matrix(1.3333333,0,0,1.3333333,245.38533,318.58027)"><tspan
         id="tspan10"
         style="font-variant:normal;font-weight:normal;font-size:7px;font-family:Helvetica;writing-mode:lr-tb;fill:#000000;fill-opacity:1;fill-rule:nonzero;stroke:none"
         x="0"
         y="0"> 100</tspan></text>
    <path
       id="path11"
       d="m 2691,224 v 31.5"
       style="fill:none;stroke:#000000;stroke-width:2.5;stroke-linecap:butt;stroke-linejoin:miter;stroke-miterlimit:3.8;stroke-dasharray:none;stroke-opacity:1"
       transform="matrix(0.13333333,0,0,-0.13333333,0,336)" />
    <text
       id="text11"
       xml:space="preserve"
       transform="matrix(1.3333333,0,0,1.3333333,349.71867,318.58027)"><tspan
         id="tspan11"
         style="font-variant:normal;font-weight:normal;font-size:7px;font-family:Helvetica;writing-mode:lr-tb;fill:#000000;fill-opacity:1;fill-rule:nonzero;stroke:none"
         x="0"
         y="0"> 150</tspan></text>
    <path
       id="path12"
       d="m 3473.5,224 v 31.5"
       style="fill:none;stroke:#000000;stroke-width:2.5;stroke-linecap:butt;stroke-linejoin:miter;stroke-miterlimit:3.8;stroke-dasharray:none;stroke-opacity:1"
       transform="matrix(0.13333333,0,0,-0.13333333,0,336)" />
    <text
       id="text12"
       xml:space="preserve"
       transform="matrix(1.3333333,0,0,1.3333333,454.052,318.58027)"><tspan
         id="tspan12"
         style="font-variant:normal;font-weight:normal;font-size:7px;font-family:Helvetica;writing-mode:lr-tb;fill:#000000;fill-opacity:1;fill-rule:nonzero;stroke:none"
         x="0"
         y="0"> 200</tspan></text>
    <path
       id="path13"
       d="M 343,2449.5 V 224 h 3130.5"
       style="fill:none;stroke:#000000;stroke-width:5;stroke-linecap:butt;stroke-linejoin:miter;stroke-miterlimit:3.8;stroke-dasharray:none;stroke-opacity:1"
       transform="matrix(0.13333333,0,0,-0.13333333,0,336)" />
    <text
       id="text13"
       xml:space="preserve"
       transform="matrix(0,-1.3333333,1.3333333,0,11.980213,169.20533)"><tspan
         id="tspan13"
         style="font-variant:normal;font-weight:normal;font-size:7px;font-family:Helvetica;writing-mode:lr-tb;fill:#000000;fill-opacity:1;fill-rule:nonzero;stroke:none"
         x="0"
         y="0">Utility</tspan></text>
    <text
       id="text14"
       xml:space="preserve"
       transform="matrix(1.3333333,0,0,1.3333333,197.60533,332.58021)"><tspan
         id="tspan14"
         style="font-variant:normal;font-weight:normal;font-size:7px;font-family:Helvetica;writing-mode:lr-tb;fill:#000000;fill-opacity:1;fill-rule:nonzero;stroke:none"
         x="0"
         y="0">Stage in Self-Torture series</tspan><tspan
         id="tspan15"
         style="font-variant:normal;font-weight:normal;font-size:7px;font-family:Helvetica;writing-mode:lr-tb;fill:#000000;fill-opacity:1;fill-rule:nonzero;stroke:none"
         x="68.175797"
         y="-233.39999">life-altering pain is... 9 dial turns</tspan></text>
    <path
       id="path15"
       d="m 3190,2383 h 199.5 M 343,2078.5 l 15.5,18.5 16,18.5 15.5,18.5 15.5,19 16,18.5 15.5,18.5 15.5,18.5 15.5,-204 16,18.5 15.5,18.5 15.5,18.5 16,18.5 15.5,18.5 15.5,18.5 16,18.5 15.5,-204 15.5,19 15.5,18.5 16,18.5 15.5,18.5 15.5,18.5 16,18.5 15.5,18.5 15.5,-204 16,18.5 15.5,18.5 15.5,18.5 16,18.5 15.5,19 15.5,18.5 15.5,18.5 16,-204 15.5,18.5 15.5,18.5 16,18.5 15.5,18.5 15.5,18.5 16,18.5 15.5,18.5 15.5,-204 16,18.5 15.5,19 15.5,18.5 15.5,18.5 16,18.5 15.5,18.5 15.5,18.5 16,-204 15.5,18.5 15.5,18.5 16,18.5 15.5,18.5 15.5,18.5 15.5,19 16,18.5 15.5,-204 15.5,18.5 16,18.5 15.5,18.5 15.5,18.5 16,18.5 15.5,18.5 15.5,18.5 16,-204 15.5,18.5 15.5,18.5 15.5,19 16,18.5 15.5,18.5 15.5,18.5 16,18.5 15.5,-204 15.5,18.5 16,18.5 15.5,18.5 15.5,18.5 15.5,18.5 16,18.5 15.5,19 15.5,-204 16,18.5 15.5,18.5 15.5,18.5 16,18.5 15.5,18.5 15.5,18.5 16,18.5 15.5,-204 15.5,18.5 15.5,18.5 16,18.5 15.5,19 15.5,18.5 16,18.5 15.5,18.5 15.5,-204 16,18.5 15.5,18.5 15.5,18.5 16,18.5 15.5,18.5 15.5,18.5 15.5,18.5 16,-204 15.5,18.5 15.5,19 16,18.5 15.5,18.5 15.5,18.5 16,18.5 15.5,18.5 15.5,-204 15.5,18.5 16,18.5 15.5,18.5 15.5,18.5 16,18.5 15.5,19 15.5,18.5 16,-204 15.5,18.5 15.5,18.5 16,18.5 15.5,18.5 15.5,18.5 15.5,18.5 16,18.5 15.5,-204 15.5,18.5 16,18.5 15.5,19 15.5,18.5 16,18.5 15.5,18.5 15.5,18.5 15.5,-204 16,18.5 15.5,18.5 15.5,18.5 16,18.5 15.5,18.5 15.5,18.5 16,19 15.5,-204 15.5,18.5 16,18.5 15.5,18.5 15.5,18.5 15.5,18.5 16,18.5 15.5,18.5 15.5,-204 16,18.5 15.5,18.5 15.5,18.5 16,19 15.5,18.5 15.5,18.5 15.5,18.5 16,-204 15.5,18.5 15.5,18.5 16,18.5 15.5,18.5 15.5,18.5 16,18.5 15.5,18.5 15.5,-204 16,19 15.5,18.5 15.5,18.5 15.5,18.5 16,18.5 15.5,18.5 15.5,18.5 16,-204 15.5,18.5 15.5,18.5 16,18.5 15.5,18.5 15.5,19 16,18.5 15.5,18.5 15.5,-204 15.5,18.5 16,18.5 15.5,18.5 15.5,18.5 16,18.5 15.5,18.5 15.5,18.5 16,-204 15.5,18.5 15.5,19 15.5,18.5 16,18.5 15.5,18.5 15.5,18.5 16,18.5 15.5,-204"
       style="fill:none;stroke:#ff0000;stroke-width:5;stroke-linecap:butt;stroke-linejoin:miter;stroke-miterlimit:3.8;stroke-dasharray:20, 30;stroke-dashoffset:0;stroke-opacity:1"
       transform="matrix(0.13333333,0,0,-0.13333333,0,336)" />
    <text
       id="text15"
       xml:space="preserve"
       transform="matrix(1.3333333,0,0,1.3333333,368.89733,30.713333)"><tspan
         id="tspan16"
         style="font-variant:normal;font-weight:normal;font-size:7px;font-family:Helvetica;writing-mode:lr-tb;fill:#000000;fill-opacity:1;fill-rule:nonzero;stroke:none"
         x="0"
         y="0">10 dial turns</tspan></text>
    <path
       id="path16"
       d="m 3190,2313 h 199.5 M 343,2078.5 l 15.5,18.5 16,18.5 15.5,18.5 15.5,19 16,18.5 15.5,18.5 15.5,18.5 15.5,18.5 16,-204 15.5,18.5 15.5,18.5 16,18.5 15.5,18.5 15.5,18.5 16,18.5 15.5,19 15.5,18.5 15.5,-204 16,18.5 15.5,18.5 15.5,18.5 16,18.5 15.5,18.5 15.5,18.5 16,18.5 15.5,18.5 15.5,-204 16,18.5 15.5,19 15.5,18.5 15.5,18.5 16,18.5 15.5,18.5 15.5,18.5 16,18.5 15.5,-204 15.5,18.5 16,18.5 15.5,18.5 15.5,18.5 16,19 15.5,18.5 15.5,18.5 15.5,18.5 16,-204 15.5,18.5 15.5,18.5 16,18.5 15.5,18.5 15.5,18.5 16,18.5 15.5,18.5 15.5,19 15.5,-204 16,18.5 15.5,18.5 15.5,18.5 16,18.5 15.5,18.5 15.5,18.5 16,18.5 15.5,18.5 15.5,-204 16,18.5 15.5,18.5 15.5,19 15.5,18.5 16,18.5 15.5,18.5 15.5,18.5 16,18.5 15.5,-204 15.5,18.5 16,18.5 15.5,18.5 15.5,18.5 15.5,18.5 16,19 15.5,18.5 15.5,18.5 16,-204 15.5,18.5 15.5,18.5 16,18.5 15.5,18.5 15.5,18.5 16,18.5 15.5,18.5 15.5,18.5 15.5,-204 16,19 15.5,18.5 15.5,18.5 16,18.5 15.5,18.5 15.5,18.5 16,18.5 15.5,18.5 15.5,-204 16,18.5 15.5,18.5 15.5,18.5 15.5,19 16,18.5 15.5,18.5 15.5,18.5 16,18.5 15.5,-204 15.5,18.5 16,18.5 15.5,18.5 15.5,18.5 15.5,18.5 16,18.5 15.5,19 15.5,18.5 16,-204 15.5,18.5 15.5,18.5 16,18.5 15.5,18.5 15.5,18.5 16,18.5 15.5,18.5 15.5,18.5 15.5,-204 16,18.5 15.5,19 15.5,18.5 16,18.5 15.5,18.5 15.5,18.5 16,18.5 15.5,18.5 15.5,-204 15.5,18.5 16,18.5 15.5,18.5 15.5,18.5 16,19 15.5,18.5 15.5,18.5 16,18.5 15.5,-204 15.5,18.5 16,18.5 15.5,18.5 15.5,18.5 15.5,18.5 16,18.5 15.5,18.5 15.5,19 16,-204.5 15.5,19 15.5,18.5 16,18.5 15.5,18.5 15.5,18.5 15.5,18.5 16,18.5 15.5,18.5 15.5,-204 16,18.5 15.5,18.5 15.5,18.5 16,19 15.5,18.5 15.5,18.5 16,18.5 15.5,18.5 15.5,-204 15.5,18.5 16,18.5 15.5,18.5 15.5,18.5 16,18.5 15.5,18.5 15.5,19 16,18.5 15.5,-204 15.5,18.5 16,18.5 15.5,18.5 15.5,18.5 15.5,18.5 16,18.5 15.5,18.5 15.5,18.5 16,-204 15.5,18.5 15.5,19 16,18.5 15.5,18.5 15.5,18.5 15.5,18.5 16,18.5 15.5,18.5 15.5,-204 16,18.5 15.5,18.5"
       style="fill:none;stroke:#0000ff;stroke-width:5;stroke-linecap:butt;stroke-linejoin:miter;stroke-miterlimit:3.8;stroke-dasharray:10, 15;stroke-dashoffset:0;stroke-opacity:1"
       transform="matrix(0.13333333,0,0,-0.13333333,0,336)" />
    <text
       id="text16"
       xml:space="preserve"
       transform="matrix(1.3333333,0,0,1.3333333,368.384,40.046667)"><tspan
         id="tspan17"
         style="font-variant:normal;font-weight:normal;font-size:7px;font-family:Helvetica;writing-mode:lr-tb;fill:#000000;fill-opacity:1;fill-rule:nonzero;stroke:none"
         x="0"
         y="0">11 dial-turns</tspan></text>
    <path
       id="path17"
       d="m 3190,2243 h 199.5 M 343,2078.5 l 15.5,18.5 16,18.5 15.5,18.5 15.5,19 16,18.5 15.5,18.5 15.5,18.5 15.5,18.5 16,18.5 15.5,-204 15.5,18.5 16,18.5 15.5,18.5 15.5,18.5 16,18.5 15.5,19 15.5,18.5 15.5,18.5 16,18.5 15.5,-204 15.5,18.5 16,18.5 15.5,18.5 15.5,18.5 16,18.5 15.5,18.5 15.5,18.5 16,19 15.5,18.5 15.5,-204 15.5,18.5 16,18.5 15.5,18.5 15.5,18.5 16,18.5 15.5,18.5 15.5,18.5 16,18.5 15.5,18.5 15.5,-204 16,19 15.5,18.5 15.5,18.5 15.5,18.5 16,18.5 15.5,18.5 15.5,18.5 16,18.5 15.5,18.5 15.5,-204 16,18.5 15.5,18.5 15.5,19 15.5,18.5 16,18.5 15.5,18.5 15.5,18.5 16,18.5 15.5,18.5 15.5,-204 16,18.5 15.5,18.5 15.5,18.5 16,18.5 15.5,19 15.5,18.5 15.5,18.5 16,18.5 15.5,18.5 15.5,-204 16,18.5 15.5,18.5 15.5,18.5 16,18.5 15.5,18.5 15.5,18.5 15.5,19 16,18.5 15.5,18.5 15.5,-204 16,18.5 15.5,18.5 15.5,18.5 16,18.5 15.5,18.5 15.5,18.5 16,18.5 15.5,18.5 15.5,19 15.5,-204 16,18.5 15.5,18.5 15.5,18.5 16,18.5 15.5,18.5 15.5,18.5 16,18.5 15.5,18.5 15.5,18.5 16,-204 15.5,18.5 15.5,19 15.5,18.5 16,18.5 15.5,18.5 15.5,18.5 16,18.5 15.5,18.5 15.5,18.5 16,-204 15.5,18.5 15.5,18.5 15.5,18.5 16,19 15.5,18.5 15.5,18.5 16,18.5 15.5,18.5 15.5,18.5 16,-204 15.5,18.5 15.5,18.5 16,18.5 15.5,18.5 15.5,18.5 15.5,19 16,18.5 15.5,18.5 15.5,18.5 16,-204 15.5,18.5 15.5,18.5 16,18.5 15.5,18.5 15.5,18.5 15.5,18.5 16,18.5 15.5,19 15.5,18.5 16,-204 15.5,18.5 15.5,18.5 16,18.5 15.5,18.5 15.5,18.5 16,18.5 15.5,18.5 15.5,18.5 15.5,18.5 16,-204 15.5,19 15.5,18.5 16,18.5 15.5,18.5 15.5,18.5 16,18.5 15.5,18.5 15.5,18.5 15.5,18.5 16,-204 15.5,18.5 15.5,18.5 16,19 15.5,18.5 15.5,18.5 16,18.5 15.5,18.5 15.5,18.5 16,18.5 15.5,-204 15.5,18.5 15.5,18.5 16,18.5 15.5,18.5 15.5,19 16,18.5 15.5,18.5 15.5,18.5 16,18.5 15.5,-204 15.5,18.5 16,18.5 15.5,18.5 15.5,18.5 15.5,18.5 16,18.5 15.5,19 15.5,18.5 16,18.5 15.5,-204 15.5,18.5 16,18.5 15.5,18.5 15.5,18.5 15.5,18.5 16,18.5 15.5,18.5 15.5,18.5 16,19 15.5,-204"
       style="fill:none;stroke:#000000;stroke-width:5;stroke-linecap:butt;stroke-linejoin:miter;stroke-miterlimit:3.8;stroke-dasharray:none;stroke-opacity:1"
       transform="matrix(0.13333333,0,0,-0.13333333,0,336)" />
    <path
       id="path18"
       d="M 343,2449.5 V 224 h 3130.5"
       style="fill:none;stroke:#000000;stroke-width:5;stroke-linecap:butt;stroke-linejoin:miter;stroke-miterlimit:3.8;stroke-dasharray:none;stroke-opacity:1"
       transform="matrix(0.13333333,0,0,-0.13333333,0,336)" />
  </g>
</svg>
